<svg width="16" height="16" viewBox="0 0 16 16" fill="none" xmlns="http://www.w3.org/2000/svg">
<path d="M10.4052 5.96875C10.4052 8.45703 8.05738 10.4375 5.21002 10.4375C4.68551 10.4375 4.21095 10.3867 3.73639 10.2598C3.03704 10.7422 1.93806 11.25 0.589317 11.25C0.364526 11.25 0.139735 11.123 0.0398273 10.8945C-0.0351031 10.666 -0.0101263 10.4121 0.164711 10.2344C0.164711 10.2344 0.764154 9.57422 1.13881 8.76172C0.439456 8 0.0148505 7.03516 0.0148505 5.96875C0.0148505 3.50586 2.33769 1.5 5.21002 1.5C8.05738 1.5 10.4052 3.50586 10.4052 5.96875ZM5.21002 9.625C7.63277 9.625 9.60594 8 9.60594 5.96875C9.60594 3.96289 7.63277 2.3125 5.21002 2.3125C2.7623 2.3125 0.814108 3.96289 0.814108 5.96875C0.814108 6.78125 1.11383 7.56836 1.71327 8.20312L2.08792 8.60938L1.86313 9.11719C1.61337 9.65039 1.28867 10.1074 1.06388 10.4375C2.01299 10.3359 2.78728 9.92969 3.31179 9.59961L3.58653 9.39648L3.93621 9.47266C4.33584 9.57422 4.78542 9.625 5.21002 9.625ZM15.1508 12.5703C15.4755 13.1035 15.8252 13.4844 15.8252 13.5098C15.975 13.6621 16.025 13.916 15.95 14.1445C15.8501 14.373 15.6253 14.5 15.4006 14.5C14.5763 14.5 13.877 14.3223 13.2775 14.0684C12.6281 14.3477 11.9288 14.5 11.2045 14.5C8.93157 14.5 7.05831 13.0781 6.53379 11.123C6.80854 11.0723 7.08328 10.9961 7.33305 10.9199C7.75766 12.5195 9.30622 13.6875 11.2045 13.6875C11.8039 13.6875 12.3784 13.5605 12.9528 13.332L13.2526 13.1797L13.5773 13.3066C14.0268 13.5098 14.4764 13.6367 14.926 13.6875C14.8011 13.5098 14.6263 13.2559 14.4764 13.002L14.1767 12.5195L14.5014 12.0879C14.951 11.4785 15.2007 10.7676 15.2007 10.0312C15.2007 8.02539 13.4024 6.375 11.2045 6.375C11.1795 6.375 11.1795 6.40039 11.1795 6.40039C11.1795 6.24805 11.2045 6.12109 11.2045 5.96875C11.2045 5.8418 11.1795 5.71484 11.1795 5.58789C11.1795 5.58789 11.1795 5.5625 11.2045 5.5625C13.852 5.5625 16 7.56836 16 10.0312C16 10.9707 15.6753 11.8594 15.1508 12.5703Z" fill="#222222"/>
</svg>
