<svg width="16" height="16" viewBox="0 0 16 16" fill="none" xmlns="http://www.w3.org/2000/svg">
<path d="M14.5312 2.0625C14.7812 2.3125 15 2.78125 15 3.125V11.5C15 12.3438 14.3125 13 13.5 13H11V14.5C11 15.3438 10.3125 16 9.5 16H2.5C1.65625 16 1 15.3438 1 14.5V4.5C1 3.6875 1.65625 3 2.5 3H5V1.5C5 0.6875 5.65625 0 6.5 0H11.875C12.2188 0 12.6875 0.21875 12.9375 0.46875L14.5312 2.0625ZM12 1.03125V3H13.9688C13.9375 2.9375 13.9062 2.84375 13.8438 2.78125L12.2188 1.15625C12.1562 1.09375 12.0625 1.0625 12 1.03125ZM10 14.5V13H6.5C5.65625 13 5 12.3438 5 11.5V4H2.5C2.21875 4 2 4.25 2 4.5V14.5C2 14.7812 2.21875 15 2.5 15H9.5C9.75 15 10 14.7812 10 14.5ZM14 11.5V4H11.75C11.3125 4 11 3.6875 11 3.25V1H6.5C6.21875 1 6 1.25 6 1.5V11.5C6 11.7812 6.21875 12 6.5 12H13.5C13.75 12 14 11.7812 14 11.5Z" fill="#222222"/>
</svg>
