<svg width="16" height="16" viewBox="0 0 16 16" fill="none" xmlns="http://www.w3.org/2000/svg">
<g clip-path="url(#clip0_413_22801)">
<path d="M15.5 0C15.75 0 16 0.25 16 0.5V5.5C16 5.78125 15.75 6 15.5 6C15.2188 6 15 5.78125 15 5.5V1.71875L9.84375 6.875C9.65625 7.0625 9.3125 7.0625 9.125 6.875C8.9375 6.6875 8.9375 6.34375 9.125 6.15625L14.2812 1H10.5C10.2188 1 10 0.78125 10 0.5C10 0.25 10.2188 0 10.5 0H15.5ZM6.125 9.15625C6.3125 8.96875 6.65625 8.96875 6.84375 9.15625C7.03125 9.34375 7.03125 9.6875 6.84375 9.875L1.6875 15H5.5C5.75 15 6 15.25 6 15.5C6 15.7812 5.75 16 5.5 16H0.5C0.21875 16 0 15.7812 0 15.5V10.5C0 10.25 0.21875 10 0.5 10C0.75 10 1 10.25 1 10.5V14.3125L6.125 9.15625Z" fill="#222222"/>
</g>
<defs>
<clipPath id="clip0_413_22801">
<rect width="16" height="16" fill="white"/>
</clipPath>
</defs>
</svg>
