<svg width="16" height="16" viewBox="0 0 16 16" fill="none" xmlns="http://www.w3.org/2000/svg">
<path d="M12.5 6C12.75 6 13 6.25 13 6.5V8C13 10.5938 11 12.7188 8.5 12.9688V15H10.5C10.75 15 11 15.25 11 15.5C11 15.7812 10.75 16 10.5 16H5.5C5.21875 16 5 15.7812 5 15.5C5 15.25 5.21875 15 5.5 15H7.5V12.9688C4.90625 12.7188 3 10.4375 3 7.84375V6.5C3 6.25 3.21875 6 3.5 6C3.75 6 4 6.25 4 6.5V7.875C4 10 5.59375 11.875 7.71875 12C10.0312 12.1562 12 10.3125 12 8V6.5C12 6.25 12.2188 6 12.5 6ZM8 11C6.34375 11 5 9.65625 5 8V3C5 1.34375 6.34375 0 8 0C9.65625 0 11 1.375 11 3V8C11 9.65625 9.65625 11 8 11ZM6 3V8C6 9.125 6.875 10 8 10C9.09375 10 10 9.125 10 8V3C10 1.90625 9.09375 1 8 1C6.875 1 6 1.90625 6 3Z" fill="#222222"/>
</svg>
