<svg width="16" height="16" viewBox="0 0 16 16" fill="none" xmlns="http://www.w3.org/2000/svg">
<path d="M15.3755 7.08018C15.7502 7.23608 15.9688 7.61024 16 7.98441C16 8.38975 15.7502 8.76392 15.3755 8.91982L1.38726 14.9065C1.26237 14.9688 1.13747 15 1.01258 15C0.731564 15 0.450549 14.8753 0.263207 14.657C-0.0178076 14.3764 -0.0802551 13.9087 0.107088 13.5345L3.0109 7.98441L0.107088 2.46548C-0.0802551 2.09131 -0.0178076 1.62361 0.263207 1.3118C0.450549 1.09354 0.731564 1 1.01258 1C1.13747 1 1.26237 1.03118 1.38726 1.09354L15.3755 7.08018ZM0.981354 2.02895L3.85394 7.48552H13.8143L0.981354 2.02895ZM0.981354 14.0022L13.7831 8.4833H3.85394L0.981354 14.0022Z" fill="#222222"/>
</svg>
