<svg version="1.1" id="Layer_1" xmlns:x="ns_extend;" xmlns:i="ns_ai;" xmlns:graph="ns_graphs;" xmlns="http://www.w3.org/2000/svg" xmlns:xlink="http://www.w3.org/1999/xlink" x="0px" y="0px" viewBox="0 0 128.5 104" style="enable-background:new 0 0 128.5 104;" xml:space="preserve">
 <style type="text/css">
  .st0{fill:#FFCD00;}
	.st1{fill:#71A300;}
 </style>
 <metadata>
  <sfw xmlns="ns_sfw;">
   <slices>
   </slices>
   <sliceSourceBounds bottomLeftOrigin="true" height="104" width="128.5" x="-146.6" y="-30.7">
   </sliceSourceBounds>
  </sfw>
 </metadata>
 <g>
  <g>
   <g>
    <g>
     <path class="st0" d="M83,31.6c-1.4-2.2-2.4-3.4-4-5.2C-51.7,46.4,123.4,63.2,47,104h74.2C166.4,55.5-19.2,50.6,83,31.6">
     </path>
     <path class="st1" d="M44.5,99.1c6.3-3.3,10.3-6.3,12.9-8.7c-1.9,0.3-3.9,0.5-6,0.5c-20.8,0-37.7-17.1-37.7-38.3
					c0-21.1,16.9-38.3,37.7-38.3c20.8,0,37.7,17.1,37.7,38.3c0,0.4,0,0.8,0,1.3c4.3,1.6,8.7,3.2,13,5c0.3-2.2,0.5-4.5,0.5-6.8
					c0-28.7-22.9-52-51.2-52C22.9,0,0,23.3,0,52c0,24.2,16.4,44.6,38.5,50.3L44.5,99.1z">
     </path>
    </g>
   </g>
  </g>
 </g>
</svg>