<svg width="16" height="16" viewBox="0 0 16 16" fill="none" xmlns="http://www.w3.org/2000/svg">
<g clip-path="url(#clip0_195_22569)">
<path d="M3.25582 7C3.6628 7 4.00717 7.34375 4.00717 7.75V15.25C4.00717 15.6875 3.6628 16 3.25582 16H0.751344C0.31306 16 0 15.6875 0 15.25V7.75C0 7.34375 0.31306 7 0.751344 7H3.25582ZM2.00358 14.75C2.41056 14.75 2.75493 14.4375 2.75493 14C2.75493 13.5938 2.41056 13.25 2.00358 13.25C1.5653 13.25 1.25224 13.5938 1.25224 14C1.25224 14.4375 1.5653 14.75 2.00358 14.75ZM12.0215 2.5625C12.0215 3.875 11.2075 4.625 10.9571 5.5H14.1503C15.1834 5.5 15.9974 6.375 15.9974 7.34375C16.0287 7.90625 15.7782 8.5 15.4025 8.875C15.7156 9.59375 15.653 10.625 15.1208 11.3438C15.3712 12.1562 15.1208 13.1562 14.5886 13.6875C14.7451 14.25 14.6825 14.7188 14.4008 15.0938C13.7746 16 12.178 16 10.8319 16H10.738C9.23527 16 8.01433 15.4688 7.01254 15.0312C6.51165 14.8125 5.85422 14.5312 5.35332 14.5312C5.16549 14.5 5.00896 14.3438 5.00896 14.1562V7.46875C5.00896 7.375 5.04027 7.28125 5.10288 7.1875C6.35512 5.96875 6.88732 4.6875 7.88911 3.65625C8.3587 3.1875 8.51523 2.5 8.70307 1.8125C8.82829 1.25 9.11004 0 9.76747 0C10.5188 0 12.0215 0.25 12.0215 2.5625Z" fill="#222222"/>
</g>
<defs>
<clipPath id="clip0_195_22569">
<rect width="16" height="16" fill="white"/>
</clipPath>
</defs>
</svg>
