<svg width="16" height="16" viewBox="0 0 16 16" fill="none" xmlns="http://www.w3.org/2000/svg">
<g clip-path="url(#clip0_195_22429)">
<path d="M15.5 8.92975C15.6875 9.64787 15.5938 10.4909 15.2188 11.1154C15.3438 11.8335 15.0938 12.6453 14.625 13.2073C14.6875 14.8933 13.6562 15.9861 11.8125 15.9861C11.7188 16.0173 10.6875 15.9861 10.5312 15.9861C8.125 16.0173 6 14.7372 5 14.7372V14.987C5 15.549 4.53125 15.9861 4 15.9861H1C0.4375 15.9861 0 15.549 0 14.987V6.99393C0 6.46314 0.4375 5.9948 1 5.9948H4C4.3125 5.9948 4.625 6.18213 4.8125 6.43192C4.90625 6.43192 5 6.40069 5.0625 6.36947C5.75 5.9948 6.84375 4.21509 7.59375 3.49696C7.90625 3.18474 8 2.65395 8.125 2.12316C8.28125 1.18647 8.625 0 9.5625 0C11.4375 0 12.1562 1.0928 12.1562 2.93495C12.1562 3.87164 11.7812 4.55854 11.5312 5.08933H13.7188C14.9688 5.08933 15.9688 6.18213 16 7.3686C16 7.99306 15.8125 8.52385 15.5 8.92975ZM1 14.987H4V6.99393H1V14.987ZM14.25 8.64874C14.75 8.49263 15 7.99306 15 7.3686C14.9688 6.74415 14.4375 6.08846 13.7188 6.08846H10.2188C10.2188 4.83955 11.1562 4.24631 11.1562 2.93495C11.1562 2.12316 11.1562 0.999133 9.5625 0.999133C8.9375 1.65481 9.25 3.24718 8.3125 4.18387C7.25 5.24545 6.15625 7.3686 5 7.3686V13.7381C6.3125 13.7381 8.25 14.987 10.5312 14.987C10.625 14.987 11.6875 15.0182 11.8125 14.987C13 14.987 13.8438 14.425 13.5938 12.8014C14.0938 12.5204 14.4688 11.5525 14.0625 10.8656C14.75 10.4909 14.75 8.99219 14.25 8.64874ZM3.25 13.4883C3.25 13.9254 2.90625 14.2376 2.5 14.2376C2.0625 14.2376 1.75 13.9254 1.75 13.4883C1.75 13.0824 2.0625 12.7389 2.5 12.7389C2.90625 12.7389 3.25 13.0824 3.25 13.4883Z" fill="#222222"/>
</g>
<defs>
<clipPath id="clip0_195_22429">
<rect width="16" height="16" fill="white"/>
</clipPath>
</defs>
</svg>
