<svg width="16" height="16" viewBox="0 0 16 16" fill="none" xmlns="http://www.w3.org/2000/svg">
<g clip-path="url(#clip0_195_22571)">
<path d="M0 1.75C0 1.34375 0.3125 1 0.75 1H3.25C3.65625 1 4 1.34375 4 1.75V9.25C4 9.6875 3.65625 10 3.25 10H0.75C0.3125 10 0 9.6875 0 9.25V1.75ZM1.25 8C1.25 8.4375 1.5625 8.75 2 8.75C2.40625 8.75 2.75 8.4375 2.75 8C2.75 7.59375 2.40625 7.25 2 7.25C1.5625 7.25 1.25 7.59375 1.25 8ZM9.75 16C9.09375 16 8.8125 14.7812 8.6875 14.2188C8.5 13.5312 8.34375 12.8438 7.875 12.375C6.875 11.3438 6.34375 10.0625 5.09375 8.84375C5.03125 8.78125 5 8.65625 5 8.5625V1.875C5 1.6875 5.15625 1.53125 5.34375 1.5C5.84375 1.5 6.5 1.21875 7 1C8 0.5625 9.21875 0.03125 10.7188 0H10.8125C12.1562 0 13.75 0.03125 14.375 0.9375C14.6562 1.3125 14.7188 1.78125 14.5625 2.34375C15.0938 2.875 15.3438 3.875 15.0938 4.6875C15.625 5.40625 15.6875 6.4375 15.375 7.15625C15.75 7.53125 16 8.125 16 8.6875C15.9688 9.65625 15.1562 10.5 14.125 10.5H10.9375C11.1875 11.4062 12 12.1562 12 13.4688C12 15.75 10.5 16 9.75 16Z" fill="#222222"/>
</g>
<defs>
<clipPath id="clip0_195_22571">
<rect width="16" height="16" fill="white"/>
</clipPath>
</defs>
</svg>
