<svg width="16" height="16" viewBox="0 0 16 16" fill="none" xmlns="http://www.w3.org/2000/svg">
<g clip-path="url(#clip0_195_22431)">
<path d="M15.5 7.08408C15.8125 7.49077 16 7.99131 16 8.64827C16 9.83706 14.9688 10.932 13.7188 10.932H11.5312C11.7812 11.4638 12.1562 12.1521 12.1562 13.0906C12.1562 14.9363 11.4375 16 9.5625 16C8.625 16 8.28125 14.8425 8.125 13.904C8 13.3721 7.90625 12.8403 7.59375 12.5275C6.84375 11.808 5.75 9.99348 5.0625 9.64936C5.03125 9.64936 5 9.61808 5 9.61808V9.99348C5 10.5566 4.53125 10.9946 4 10.9946H1C0.4375 10.9946 0 10.5566 0 9.99348V1.98479C0 1.45297 0.4375 0.983706 1 0.983706H4C4.25 0.983706 4.46875 1.10884 4.65625 1.23398H5C6.09375 1.23398 8.125 -0.01738 10.5312 0.013904C10.6875 0.013904 11.7188 -0.01738 11.8125 0.013904C13.6562 -0.01738 14.6875 1.10884 14.625 2.79818C15.0938 3.36129 15.3438 4.17467 15.2188 4.8942C15.5938 5.51988 15.6875 6.36454 15.5 7.08408ZM4 9.99348V1.98479H1V9.99348H4ZM13.7188 9.93091C14.4375 9.93091 14.9688 9.27395 15 8.64827C15 8.02259 14.75 7.49077 14.25 7.36563C14.75 6.99022 14.75 5.48859 14.0625 5.14447C14.4688 4.45622 14.0938 3.48642 13.5938 3.20487C13.8438 1.5781 13 1.01499 11.8125 1.01499C11.6875 0.983706 10.625 1.01499 10.5312 1.01499C8.3125 1.01499 6.21875 2.26635 5.125 2.26635H5V8.64827H5.125C6.0625 8.64827 7.40625 10.932 8.3125 11.8392C9.25 12.7778 8.9375 14.3732 9.5625 15.0302C11.1562 15.0302 11.1562 13.904 11.1562 13.0906C11.1562 11.7767 10.2188 11.1823 10.2188 9.93091H13.7188ZM3.25 8.49185C3.25 8.92983 2.90625 9.24267 2.5 9.24267C2.0625 9.24267 1.75 8.92983 1.75 8.49185C1.75 8.08516 2.0625 7.74104 2.5 7.74104C2.90625 7.74104 3.25 8.08516 3.25 8.49185Z" fill="#222222"/>
</g>
<defs>
<clipPath id="clip0_195_22431">
<rect width="16" height="16" fill="white"/>
</clipPath>
</defs>
</svg>
