<svg width="32" height="32" viewBox="0 0 32 32" fill="none" xmlns="http://www.w3.org/2000/svg">
<path fill-rule="evenodd" clip-rule="evenodd" d="M20.0188 11.694C19.7204 11.225 19.5072 10.9692 19.1661 10.5854C-8.93044 14.8063 28.7164 18.345 12.3019 27H28.2474C37.9682 16.7249 -1.93828 15.7017 20.0188 11.694Z" fill="#244C5A"/>
<path fill-rule="evenodd" clip-rule="evenodd" d="M11.7477 25.9768C13.112 25.252 13.9647 24.6551 14.5189 24.1434C14.0926 24.2287 13.6662 24.2287 13.2399 24.2287C8.7632 24.2287 5.13921 20.6047 5.13921 16.128C5.13921 11.6514 8.7632 8.02737 13.2399 8.02737C17.7166 8.02737 21.3406 11.6514 21.3406 16.128V16.3839C22.2785 16.7249 23.2165 17.066 24.1118 17.4497C24.1545 16.9807 24.1971 16.5118 24.1971 16.0001C24.1971 9.90331 19.2514 5.00027 13.1973 5.00027C7.10043 4.95764 2.19739 9.90331 2.19739 16.0001C2.19739 21.1164 5.69347 25.4651 10.4686 26.6589L11.7477 25.9768Z" fill="#244C5A"/>
</svg>
